<mxfile host="app.diagrams.net" agent="Mozilla/5.0 (Windows NT 10.0; Win64; x64; rv:131.0) Gecko/20100101 Firefox/131.0" version="24.8.3">
  <diagram id="R2lEEEUBdFMjLlhIrx00" name="Page-1">
    <mxGraphModel grid="1" page="1" gridSize="10" guides="1" tooltips="1" connect="1" arrows="1" fold="1" pageScale="1" pageWidth="850" pageHeight="1100" math="0" shadow="0" extFonts="Permanent Marker^https://fonts.googleapis.com/css?family=Permanent+Marker">
      <root>
        <mxCell id="0" />
        <mxCell id="1" parent="0" />
        <mxCell id="NHeWaSwUiM2406PgDpy3-2" value="Vivero" style="whiteSpace=wrap;html=1;align=center;" vertex="1" parent="1">
          <mxGeometry x="140" y="170" width="100" height="40" as="geometry" />
        </mxCell>
        <mxCell id="NHeWaSwUiM2406PgDpy3-4" value="Georreferenciación zona" style="ellipse;whiteSpace=wrap;html=1;align=center;" vertex="1" parent="1">
          <mxGeometry x="447.5" y="90" width="115" height="55" as="geometry" />
        </mxCell>
        <mxCell id="NHeWaSwUiM2406PgDpy3-5" value="Latitud Zona" style="ellipse;whiteSpace=wrap;html=1;align=center;" vertex="1" parent="1">
          <mxGeometry x="400" y="30" width="100" height="40" as="geometry" />
        </mxCell>
        <mxCell id="NHeWaSwUiM2406PgDpy3-6" value="Longitud Zona" style="ellipse;whiteSpace=wrap;html=1;align=center;" vertex="1" parent="1">
          <mxGeometry x="517.5" y="30" width="100" height="40" as="geometry" />
        </mxCell>
        <mxCell id="NHeWaSwUiM2406PgDpy3-11" value="" style="endArrow=none;html=1;rounded=0;exitX=0.5;exitY=1;exitDx=0;exitDy=0;entryX=0.5;entryY=0;entryDx=0;entryDy=0;" edge="1" parent="1" source="NHeWaSwUiM2406PgDpy3-6" target="NHeWaSwUiM2406PgDpy3-4">
          <mxGeometry relative="1" as="geometry">
            <mxPoint x="400" y="370" as="sourcePoint" />
            <mxPoint x="560" y="370" as="targetPoint" />
          </mxGeometry>
        </mxCell>
        <mxCell id="NHeWaSwUiM2406PgDpy3-12" value="" style="resizable=0;html=1;whiteSpace=wrap;align=right;verticalAlign=bottom;" connectable="0" vertex="1" parent="NHeWaSwUiM2406PgDpy3-11">
          <mxGeometry x="1" relative="1" as="geometry" />
        </mxCell>
        <mxCell id="NHeWaSwUiM2406PgDpy3-13" value="" style="endArrow=none;html=1;rounded=0;exitX=0.5;exitY=1;exitDx=0;exitDy=0;entryX=0.5;entryY=0;entryDx=0;entryDy=0;" edge="1" parent="1" source="NHeWaSwUiM2406PgDpy3-5" target="NHeWaSwUiM2406PgDpy3-4">
          <mxGeometry relative="1" as="geometry">
            <mxPoint x="310" y="20" as="sourcePoint" />
            <mxPoint x="245" y="85" as="targetPoint" />
          </mxGeometry>
        </mxCell>
        <mxCell id="NHeWaSwUiM2406PgDpy3-14" value="" style="resizable=0;html=1;whiteSpace=wrap;align=right;verticalAlign=bottom;" connectable="0" vertex="1" parent="NHeWaSwUiM2406PgDpy3-13">
          <mxGeometry x="1" relative="1" as="geometry" />
        </mxCell>
        <mxCell id="S-kR7vA9aXVw8Hu3PSYM-3" value="Tiene" style="shape=rhombus;perimeter=rhombusPerimeter;whiteSpace=wrap;html=1;align=center;" vertex="1" parent="1">
          <mxGeometry x="320" y="160" width="120" height="60" as="geometry" />
        </mxCell>
        <mxCell id="S-kR7vA9aXVw8Hu3PSYM-4" value="&lt;div&gt;Georreferenciación&lt;/div&gt;&lt;div&gt;vivero&lt;br&gt;&lt;/div&gt;" style="ellipse;whiteSpace=wrap;html=1;align=center;" vertex="1" parent="1">
          <mxGeometry x="132.5" y="95" width="115" height="55" as="geometry" />
        </mxCell>
        <mxCell id="S-kR7vA9aXVw8Hu3PSYM-5" value="Latitud Vivero" style="ellipse;whiteSpace=wrap;html=1;align=center;" vertex="1" parent="1">
          <mxGeometry x="80" y="40" width="100" height="40" as="geometry" />
        </mxCell>
        <mxCell id="S-kR7vA9aXVw8Hu3PSYM-6" value="" style="endArrow=none;html=1;rounded=0;exitX=0.5;exitY=1;exitDx=0;exitDy=0;entryX=0.5;entryY=0;entryDx=0;entryDy=0;" edge="1" parent="1" source="S-kR7vA9aXVw8Hu3PSYM-10" target="S-kR7vA9aXVw8Hu3PSYM-4">
          <mxGeometry relative="1" as="geometry">
            <mxPoint x="260" y="30" as="sourcePoint" />
            <mxPoint x="90" y="380" as="targetPoint" />
          </mxGeometry>
        </mxCell>
        <mxCell id="S-kR7vA9aXVw8Hu3PSYM-7" value="" style="resizable=0;html=1;whiteSpace=wrap;align=right;verticalAlign=bottom;" connectable="0" vertex="1" parent="S-kR7vA9aXVw8Hu3PSYM-6">
          <mxGeometry x="1" relative="1" as="geometry" />
        </mxCell>
        <mxCell id="S-kR7vA9aXVw8Hu3PSYM-8" value="" style="endArrow=none;html=1;rounded=0;exitX=0.5;exitY=1;exitDx=0;exitDy=0;entryX=0.5;entryY=0;entryDx=0;entryDy=0;" edge="1" parent="1" source="S-kR7vA9aXVw8Hu3PSYM-5" target="S-kR7vA9aXVw8Hu3PSYM-4">
          <mxGeometry relative="1" as="geometry">
            <mxPoint x="-160" y="30" as="sourcePoint" />
            <mxPoint x="-225" y="95" as="targetPoint" />
          </mxGeometry>
        </mxCell>
        <mxCell id="S-kR7vA9aXVw8Hu3PSYM-9" value="" style="resizable=0;html=1;whiteSpace=wrap;align=right;verticalAlign=bottom;" connectable="0" vertex="1" parent="S-kR7vA9aXVw8Hu3PSYM-8">
          <mxGeometry x="1" relative="1" as="geometry" />
        </mxCell>
        <mxCell id="S-kR7vA9aXVw8Hu3PSYM-10" value="Longitud Vivero" style="ellipse;whiteSpace=wrap;html=1;align=center;" vertex="1" parent="1">
          <mxGeometry x="195" y="39.99999999999999" width="100" height="40" as="geometry" />
        </mxCell>
        <mxCell id="S-kR7vA9aXVw8Hu3PSYM-11" value="Empleado" style="whiteSpace=wrap;html=1;align=center;" vertex="1" parent="1">
          <mxGeometry x="525" y="565" width="100" height="40" as="geometry" />
        </mxCell>
        <mxCell id="NHeWaSwUiM2406PgDpy3-16" value="" style="endArrow=none;html=1;rounded=0;exitX=0;exitY=0.5;exitDx=0;exitDy=0;entryX=1;entryY=0.5;entryDx=0;entryDy=0;" edge="1" parent="1" source="S-kR7vA9aXVw8Hu3PSYM-3" target="NHeWaSwUiM2406PgDpy3-2">
          <mxGeometry relative="1" as="geometry">
            <mxPoint x="270" y="40" as="sourcePoint" />
            <mxPoint x="180" y="110" as="targetPoint" />
          </mxGeometry>
        </mxCell>
        <mxCell id="NHeWaSwUiM2406PgDpy3-17" value="" style="resizable=0;html=1;whiteSpace=wrap;align=right;verticalAlign=bottom;" connectable="0" vertex="1" parent="NHeWaSwUiM2406PgDpy3-16">
          <mxGeometry x="1" relative="1" as="geometry" />
        </mxCell>
        <mxCell id="NHeWaSwUiM2406PgDpy3-18" value="" style="endArrow=none;html=1;rounded=0;exitX=1;exitY=0.5;exitDx=0;exitDy=0;entryX=0;entryY=0.5;entryDx=0;entryDy=0;" edge="1" parent="1" source="NHeWaSwUiM2406PgDpy3-40">
          <mxGeometry relative="1" as="geometry">
            <mxPoint x="500" y="190" as="sourcePoint" />
            <mxPoint x="590" y="190" as="targetPoint" />
          </mxGeometry>
        </mxCell>
        <mxCell id="NHeWaSwUiM2406PgDpy3-19" value="" style="resizable=0;html=1;whiteSpace=wrap;align=right;verticalAlign=bottom;" connectable="0" vertex="1" parent="NHeWaSwUiM2406PgDpy3-18">
          <mxGeometry x="1" relative="1" as="geometry" />
        </mxCell>
        <mxCell id="NHeWaSwUiM2406PgDpy3-20" value="&lt;div&gt;Clientes&amp;nbsp;&lt;/div&gt;&lt;div&gt;Plus&lt;/div&gt;" style="whiteSpace=wrap;html=1;align=center;" vertex="1" parent="1">
          <mxGeometry x="900" y="550" width="100" height="40" as="geometry" />
        </mxCell>
        <mxCell id="NHeWaSwUiM2406PgDpy3-24" value="" style="endArrow=none;html=1;rounded=0;exitX=0.5;exitY=0;exitDx=0;exitDy=0;entryX=0.5;entryY=1;entryDx=0;entryDy=0;" edge="1" parent="1" source="NHeWaSwUiM2406PgDpy3-2" target="S-kR7vA9aXVw8Hu3PSYM-4">
          <mxGeometry relative="1" as="geometry">
            <mxPoint x="90" y="10" as="sourcePoint" />
            <mxPoint x="185" y="40" as="targetPoint" />
          </mxGeometry>
        </mxCell>
        <mxCell id="NHeWaSwUiM2406PgDpy3-25" value="" style="resizable=0;html=1;whiteSpace=wrap;align=right;verticalAlign=bottom;" connectable="0" vertex="1" parent="NHeWaSwUiM2406PgDpy3-24">
          <mxGeometry x="1" relative="1" as="geometry" />
        </mxCell>
        <mxCell id="NHeWaSwUiM2406PgDpy3-26" value="" style="endArrow=none;html=1;rounded=0;exitX=0.5;exitY=0;exitDx=0;exitDy=0;entryX=0.5;entryY=1;entryDx=0;entryDy=0;" edge="1" parent="1" source="NHeWaSwUiM2406PgDpy3-40" target="NHeWaSwUiM2406PgDpy3-4">
          <mxGeometry relative="1" as="geometry">
            <mxPoint x="640" y="170" as="sourcePoint" />
            <mxPoint x="265" y="50" as="targetPoint" />
          </mxGeometry>
        </mxCell>
        <mxCell id="NHeWaSwUiM2406PgDpy3-27" value="" style="resizable=0;html=1;whiteSpace=wrap;align=right;verticalAlign=bottom;" connectable="0" vertex="1" parent="NHeWaSwUiM2406PgDpy3-26">
          <mxGeometry x="1" relative="1" as="geometry" />
        </mxCell>
        <mxCell id="NHeWaSwUiM2406PgDpy3-31" value="&lt;u&gt;Nombre Zona&lt;br&gt;&lt;/u&gt;" style="ellipse;whiteSpace=wrap;html=1;align=center;" vertex="1" parent="1">
          <mxGeometry x="589.89" y="95" width="100" height="45" as="geometry" />
        </mxCell>
        <mxCell id="NHeWaSwUiM2406PgDpy3-32" value="" style="endArrow=none;html=1;rounded=0;exitX=0.5;exitY=0;exitDx=0;exitDy=0;entryX=0.5;entryY=1;entryDx=0;entryDy=0;" edge="1" parent="1" source="NHeWaSwUiM2406PgDpy3-40" target="NHeWaSwUiM2406PgDpy3-31">
          <mxGeometry relative="1" as="geometry">
            <mxPoint x="690" y="190" as="sourcePoint" />
            <mxPoint x="780" y="148" as="targetPoint" />
          </mxGeometry>
        </mxCell>
        <mxCell id="NHeWaSwUiM2406PgDpy3-33" value="" style="resizable=0;html=1;whiteSpace=wrap;align=right;verticalAlign=bottom;" connectable="0" vertex="1" parent="NHeWaSwUiM2406PgDpy3-32">
          <mxGeometry x="1" relative="1" as="geometry" />
        </mxCell>
        <mxCell id="NHeWaSwUiM2406PgDpy3-37" value="&lt;u&gt;Identificación&lt;/u&gt;" style="ellipse;whiteSpace=wrap;html=1;align=center;" vertex="1" parent="1">
          <mxGeometry x="400" y="565" width="100" height="40" as="geometry" />
        </mxCell>
        <mxCell id="NHeWaSwUiM2406PgDpy3-38" value="" style="endArrow=none;html=1;rounded=0;exitX=1;exitY=0.5;exitDx=0;exitDy=0;entryX=0;entryY=0.5;entryDx=0;entryDy=0;" edge="1" parent="1" source="NHeWaSwUiM2406PgDpy3-37" target="S-kR7vA9aXVw8Hu3PSYM-11">
          <mxGeometry relative="1" as="geometry">
            <mxPoint x="-70" y="590" as="sourcePoint" />
            <mxPoint x="-45" y="590" as="targetPoint" />
          </mxGeometry>
        </mxCell>
        <mxCell id="NHeWaSwUiM2406PgDpy3-39" value="" style="resizable=0;html=1;whiteSpace=wrap;align=right;verticalAlign=bottom;" connectable="0" vertex="1" parent="NHeWaSwUiM2406PgDpy3-38">
          <mxGeometry x="1" relative="1" as="geometry" />
        </mxCell>
        <mxCell id="NHeWaSwUiM2406PgDpy3-42" value="&lt;u&gt;DNI&lt;/u&gt;" style="ellipse;whiteSpace=wrap;html=1;align=center;" vertex="1" parent="1">
          <mxGeometry x="810" y="610" width="100" height="40" as="geometry" />
        </mxCell>
        <mxCell id="NHeWaSwUiM2406PgDpy3-43" value="" style="endArrow=none;html=1;rounded=0;exitX=0.5;exitY=0;exitDx=0;exitDy=0;entryX=0.5;entryY=1;entryDx=0;entryDy=0;" edge="1" parent="1" source="NHeWaSwUiM2406PgDpy3-42" target="NHeWaSwUiM2406PgDpy3-20">
          <mxGeometry relative="1" as="geometry">
            <mxPoint x="190" y="650" as="sourcePoint" />
            <mxPoint x="215" y="610" as="targetPoint" />
          </mxGeometry>
        </mxCell>
        <mxCell id="NHeWaSwUiM2406PgDpy3-44" value="" style="resizable=0;html=1;whiteSpace=wrap;align=right;verticalAlign=bottom;" connectable="0" vertex="1" parent="NHeWaSwUiM2406PgDpy3-43">
          <mxGeometry x="1" relative="1" as="geometry" />
        </mxCell>
        <mxCell id="NHeWaSwUiM2406PgDpy3-45" value="Fecha de Ingreso" style="ellipse;whiteSpace=wrap;html=1;align=center;" vertex="1" parent="1">
          <mxGeometry x="994.62" y="610" width="100" height="40" as="geometry" />
        </mxCell>
        <mxCell id="NHeWaSwUiM2406PgDpy3-46" value="" style="endArrow=none;html=1;rounded=0;exitX=0.5;exitY=0;exitDx=0;exitDy=0;entryX=0.5;entryY=1;entryDx=0;entryDy=0;" edge="1" parent="1" source="NHeWaSwUiM2406PgDpy3-45" target="NHeWaSwUiM2406PgDpy3-20">
          <mxGeometry relative="1" as="geometry">
            <mxPoint x="630" y="640" as="sourcePoint" />
            <mxPoint x="660" y="600" as="targetPoint" />
          </mxGeometry>
        </mxCell>
        <mxCell id="NHeWaSwUiM2406PgDpy3-47" value="" style="resizable=0;html=1;whiteSpace=wrap;align=right;verticalAlign=bottom;" connectable="0" vertex="1" parent="NHeWaSwUiM2406PgDpy3-46">
          <mxGeometry x="1" relative="1" as="geometry" />
        </mxCell>
        <mxCell id="NHeWaSwUiM2406PgDpy3-49" value="Bonificación" style="ellipse;whiteSpace=wrap;html=1;align=center;dashed=1;" vertex="1" parent="1">
          <mxGeometry x="1020" y="550" width="100" height="40" as="geometry" />
        </mxCell>
        <mxCell id="NHeWaSwUiM2406PgDpy3-50" value="" style="endArrow=none;html=1;rounded=0;exitX=0;exitY=0.5;exitDx=0;exitDy=0;entryX=1;entryY=0.5;entryDx=0;entryDy=0;" edge="1" parent="1" source="NHeWaSwUiM2406PgDpy3-49" target="NHeWaSwUiM2406PgDpy3-20">
          <mxGeometry relative="1" as="geometry">
            <mxPoint x="720" y="640" as="sourcePoint" />
            <mxPoint x="670" y="610" as="targetPoint" />
          </mxGeometry>
        </mxCell>
        <mxCell id="NHeWaSwUiM2406PgDpy3-51" value="" style="resizable=0;html=1;whiteSpace=wrap;align=right;verticalAlign=bottom;" connectable="0" vertex="1" parent="NHeWaSwUiM2406PgDpy3-50">
          <mxGeometry x="1" relative="1" as="geometry" />
        </mxCell>
        <mxCell id="NHeWaSwUiM2406PgDpy3-53" value="Trabaja" style="shape=rhombus;perimeter=rhombusPerimeter;whiteSpace=wrap;html=1;align=center;" vertex="1" parent="1">
          <mxGeometry x="515" y="350" width="120" height="60" as="geometry" />
        </mxCell>
        <mxCell id="NHeWaSwUiM2406PgDpy3-55" value="" style="endArrow=none;html=1;rounded=0;exitX=0.5;exitY=0;exitDx=0;exitDy=0;entryX=0.5;entryY=1;entryDx=0;entryDy=0;" edge="1" parent="1" source="NHeWaSwUiM2406PgDpy3-53" target="NHeWaSwUiM2406PgDpy3-40">
          <mxGeometry relative="1" as="geometry">
            <mxPoint x="320" y="300" as="sourcePoint" />
            <mxPoint x="260" y="300" as="targetPoint" />
          </mxGeometry>
        </mxCell>
        <mxCell id="NHeWaSwUiM2406PgDpy3-56" value="" style="resizable=0;html=1;whiteSpace=wrap;align=right;verticalAlign=bottom;" connectable="0" vertex="1" parent="NHeWaSwUiM2406PgDpy3-55">
          <mxGeometry x="1" relative="1" as="geometry" />
        </mxCell>
        <mxCell id="NHeWaSwUiM2406PgDpy3-57" value="" style="endArrow=none;html=1;rounded=0;exitX=0.5;exitY=0;exitDx=0;exitDy=0;entryX=0.5;entryY=1;entryDx=0;entryDy=0;" edge="1" parent="1" source="S-kR7vA9aXVw8Hu3PSYM-11" target="NHeWaSwUiM2406PgDpy3-53">
          <mxGeometry relative="1" as="geometry">
            <mxPoint x="150" y="330" as="sourcePoint" />
            <mxPoint x="90" y="330" as="targetPoint" />
          </mxGeometry>
        </mxCell>
        <mxCell id="NHeWaSwUiM2406PgDpy3-58" value="" style="resizable=0;html=1;whiteSpace=wrap;align=right;verticalAlign=bottom;" connectable="0" vertex="1" parent="NHeWaSwUiM2406PgDpy3-57">
          <mxGeometry x="1" relative="1" as="geometry" />
        </mxCell>
        <mxCell id="NHeWaSwUiM2406PgDpy3-61" value="Gestión" style="shape=rhombus;perimeter=rhombusPerimeter;whiteSpace=wrap;html=1;align=center;" vertex="1" parent="1">
          <mxGeometry x="720" y="450" width="120" height="60" as="geometry" />
        </mxCell>
        <mxCell id="NHeWaSwUiM2406PgDpy3-62" value="" style="endArrow=none;html=1;rounded=0;exitX=0;exitY=0.5;exitDx=0;exitDy=0;entryX=1;entryY=0.5;entryDx=0;entryDy=0;" edge="1" parent="1" source="NHeWaSwUiM2406PgDpy3-61" target="S-kR7vA9aXVw8Hu3PSYM-11">
          <mxGeometry relative="1" as="geometry">
            <mxPoint x="355" y="579.5" as="sourcePoint" />
            <mxPoint x="240" y="579.5" as="targetPoint" />
          </mxGeometry>
        </mxCell>
        <mxCell id="NHeWaSwUiM2406PgDpy3-63" value="" style="resizable=0;html=1;whiteSpace=wrap;align=right;verticalAlign=bottom;" connectable="0" vertex="1" parent="NHeWaSwUiM2406PgDpy3-62">
          <mxGeometry x="1" relative="1" as="geometry" />
        </mxCell>
        <mxCell id="NHeWaSwUiM2406PgDpy3-64" value="" style="endArrow=none;html=1;rounded=0;exitX=1;exitY=0.5;exitDx=0;exitDy=0;entryX=0;entryY=0.5;entryDx=0;entryDy=0;" edge="1" parent="1" source="NHeWaSwUiM2406PgDpy3-61" target="mad-1AcM6uH0QCK6t4t2-9">
          <mxGeometry relative="1" as="geometry">
            <mxPoint x="375" y="210" as="sourcePoint" />
            <mxPoint x="720" y="360" as="targetPoint" />
            <Array as="points" />
          </mxGeometry>
        </mxCell>
        <mxCell id="NHeWaSwUiM2406PgDpy3-65" value="" style="resizable=0;html=1;whiteSpace=wrap;align=right;verticalAlign=bottom;" connectable="0" vertex="1" parent="NHeWaSwUiM2406PgDpy3-64">
          <mxGeometry x="1" relative="1" as="geometry" />
        </mxCell>
        <mxCell id="NHeWaSwUiM2406PgDpy3-66" value="1:1" style="text;html=1;align=center;verticalAlign=middle;resizable=0;points=[];autosize=1;strokeColor=none;fillColor=none;" vertex="1" parent="1">
          <mxGeometry x="230" y="168" width="40" height="30" as="geometry" />
        </mxCell>
        <mxCell id="NHeWaSwUiM2406PgDpy3-67" value="1:N" style="text;html=1;align=center;verticalAlign=middle;resizable=0;points=[];autosize=1;strokeColor=none;fillColor=none;" vertex="1" parent="1">
          <mxGeometry x="485" y="170" width="40" height="30" as="geometry" />
        </mxCell>
        <mxCell id="NHeWaSwUiM2406PgDpy3-68" value="1:N" style="text;html=1;align=center;verticalAlign=middle;resizable=0;points=[];autosize=1;strokeColor=none;fillColor=none;" vertex="1" parent="1">
          <mxGeometry x="545" y="210" width="40" height="30" as="geometry" />
        </mxCell>
        <mxCell id="NHeWaSwUiM2406PgDpy3-69" value="1:N" style="text;html=1;align=center;verticalAlign=middle;resizable=0;points=[];autosize=1;strokeColor=none;fillColor=none;" vertex="1" parent="1">
          <mxGeometry x="540" y="540" width="40" height="30" as="geometry" />
        </mxCell>
        <mxCell id="NHeWaSwUiM2406PgDpy3-70" value="gestiona" style="text;html=1;align=center;verticalAlign=middle;resizable=0;points=[];autosize=1;strokeColor=none;fillColor=none;rotation=-57;" vertex="1" parent="1">
          <mxGeometry x="819.81" y="430" width="70" height="30" as="geometry" />
        </mxCell>
        <mxCell id="NHeWaSwUiM2406PgDpy3-71" value="0:N" style="text;html=1;align=center;verticalAlign=middle;resizable=0;points=[];autosize=1;strokeColor=none;fillColor=none;rotation=-54;" vertex="1" parent="1">
          <mxGeometry x="865" y="380" width="40" height="30" as="geometry" />
        </mxCell>
        <mxCell id="NHeWaSwUiM2406PgDpy3-72" value="1:1" style="text;html=1;align=center;verticalAlign=middle;resizable=0;points=[];autosize=1;strokeColor=none;fillColor=none;rotation=-51;" vertex="1" parent="1">
          <mxGeometry x="619.89" y="540" width="40" height="30" as="geometry" />
        </mxCell>
        <mxCell id="NHeWaSwUiM2406PgDpy3-73" value="es gestionado" style="text;html=1;align=center;verticalAlign=middle;resizable=0;points=[];autosize=1;strokeColor=none;fillColor=none;rotation=-47;" vertex="1" parent="1">
          <mxGeometry x="627.5" y="500" width="100" height="30" as="geometry" />
        </mxCell>
        <mxCell id="NHeWaSwUiM2406PgDpy3-76" value="trabaja en" style="text;html=1;align=center;verticalAlign=middle;resizable=0;points=[];autosize=1;strokeColor=none;fillColor=none;rotation=0;" vertex="1" parent="1">
          <mxGeometry x="500" y="280" width="80" height="30" as="geometry" />
        </mxCell>
        <mxCell id="NHeWaSwUiM2406PgDpy3-77" value="trabajan" style="text;html=1;align=center;verticalAlign=middle;resizable=0;points=[];autosize=1;strokeColor=none;fillColor=none;rotation=0;" vertex="1" parent="1">
          <mxGeometry x="510" y="430" width="70" height="30" as="geometry" />
        </mxCell>
        <mxCell id="NHeWaSwUiM2406PgDpy3-79" value="posee" style="text;html=1;align=center;verticalAlign=middle;resizable=0;points=[];autosize=1;strokeColor=none;fillColor=none;" vertex="1" parent="1">
          <mxGeometry x="435" y="167.5" width="60" height="30" as="geometry" />
        </mxCell>
        <mxCell id="NHeWaSwUiM2406PgDpy3-80" value="pertenece" style="text;html=1;align=center;verticalAlign=middle;resizable=0;points=[];autosize=1;strokeColor=none;fillColor=none;" vertex="1" parent="1">
          <mxGeometry x="247.5" y="168" width="80" height="30" as="geometry" />
        </mxCell>
        <mxCell id="NHeWaSwUiM2406PgDpy3-81" value="&lt;u&gt;Nombre Vivero&lt;/u&gt;" style="ellipse;whiteSpace=wrap;html=1;align=center;" vertex="1" parent="1">
          <mxGeometry y="167.5" width="100" height="45" as="geometry" />
        </mxCell>
        <mxCell id="NHeWaSwUiM2406PgDpy3-82" value="" style="endArrow=none;html=1;rounded=0;exitX=1;exitY=0.5;exitDx=0;exitDy=0;entryX=0;entryY=0.5;entryDx=0;entryDy=0;" edge="1" parent="1" source="NHeWaSwUiM2406PgDpy3-81" target="NHeWaSwUiM2406PgDpy3-2">
          <mxGeometry relative="1" as="geometry">
            <mxPoint x="60" y="140" as="sourcePoint" />
            <mxPoint x="200" y="180" as="targetPoint" />
          </mxGeometry>
        </mxCell>
        <mxCell id="NHeWaSwUiM2406PgDpy3-83" value="" style="resizable=0;html=1;whiteSpace=wrap;align=right;verticalAlign=bottom;" connectable="0" vertex="1" parent="NHeWaSwUiM2406PgDpy3-82">
          <mxGeometry x="1" relative="1" as="geometry" />
        </mxCell>
        <mxCell id="inO2hxR4vfNhl-UiEING-17" value="" style="resizable=0;html=1;whiteSpace=wrap;align=right;verticalAlign=bottom;" connectable="0" vertex="1" parent="1">
          <mxGeometry x="870.0017326744614" y="52.23636757261545" as="geometry" />
        </mxCell>
        <mxCell id="inO2hxR4vfNhl-UiEING-18" value="" style="resizable=0;html=1;whiteSpace=wrap;align=right;verticalAlign=bottom;" connectable="0" vertex="1" parent="1">
          <mxGeometry x="689.886614788334" y="79.9109116194054" as="geometry" />
        </mxCell>
        <mxCell id="issctivMTLgI86yThe_r-1" value="Nombre" style="ellipse;whiteSpace=wrap;html=1;align=center;" vertex="1" parent="1">
          <mxGeometry x="525" y="630" width="100" height="40" as="geometry" />
        </mxCell>
        <mxCell id="issctivMTLgI86yThe_r-2" value="" style="endArrow=none;html=1;rounded=0;exitX=0.5;exitY=0;exitDx=0;exitDy=0;entryX=0.5;entryY=1;entryDx=0;entryDy=0;" edge="1" parent="1" source="issctivMTLgI86yThe_r-1" target="S-kR7vA9aXVw8Hu3PSYM-11">
          <mxGeometry relative="1" as="geometry">
            <mxPoint x="100" y="630" as="sourcePoint" />
            <mxPoint x="200" y="610" as="targetPoint" />
            <Array as="points" />
          </mxGeometry>
        </mxCell>
        <mxCell id="issctivMTLgI86yThe_r-3" value="" style="resizable=0;html=1;whiteSpace=wrap;align=right;verticalAlign=bottom;" connectable="0" vertex="1" parent="issctivMTLgI86yThe_r-2">
          <mxGeometry x="1" relative="1" as="geometry" />
        </mxCell>
        <mxCell id="issctivMTLgI86yThe_r-4" value="Nombre" style="ellipse;whiteSpace=wrap;html=1;align=center;" vertex="1" parent="1">
          <mxGeometry x="899.81" y="640" width="100" height="40" as="geometry" />
        </mxCell>
        <mxCell id="issctivMTLgI86yThe_r-5" value="" style="endArrow=none;html=1;rounded=0;exitX=0.5;exitY=0;exitDx=0;exitDy=0;entryX=0.5;entryY=1;entryDx=0;entryDy=0;" edge="1" parent="1" source="issctivMTLgI86yThe_r-4" target="NHeWaSwUiM2406PgDpy3-20">
          <mxGeometry relative="1" as="geometry">
            <mxPoint x="315" y="630" as="sourcePoint" />
            <mxPoint x="200" y="610" as="targetPoint" />
            <Array as="points" />
          </mxGeometry>
        </mxCell>
        <mxCell id="issctivMTLgI86yThe_r-6" value="" style="resizable=0;html=1;whiteSpace=wrap;align=right;verticalAlign=bottom;" connectable="0" vertex="1" parent="issctivMTLgI86yThe_r-5">
          <mxGeometry x="1" relative="1" as="geometry" />
        </mxCell>
        <mxCell id="mad-1AcM6uH0QCK6t4t2-1" value="Productos" style="whiteSpace=wrap;html=1;align=center;" vertex="1" parent="1">
          <mxGeometry x="899.81" y="170" width="100" height="40" as="geometry" />
        </mxCell>
        <mxCell id="mad-1AcM6uH0QCK6t4t2-3" value="Nombre_Producto" style="ellipse;whiteSpace=wrap;html=1;align=center;fontStyle=4;" vertex="1" parent="1">
          <mxGeometry x="1024.81" y="127.5" width="110" height="50" as="geometry" />
        </mxCell>
        <mxCell id="mad-1AcM6uH0QCK6t4t2-4" value="" style="endArrow=none;html=1;rounded=0;exitX=1;exitY=0;exitDx=0;exitDy=0;entryX=0;entryY=0.5;entryDx=0;entryDy=0;" edge="1" parent="1" source="mad-1AcM6uH0QCK6t4t2-1" target="mad-1AcM6uH0QCK6t4t2-3">
          <mxGeometry relative="1" as="geometry">
            <mxPoint x="1016.81" y="-102.5" as="sourcePoint" />
            <mxPoint x="1086.81" y="-152.5" as="targetPoint" />
          </mxGeometry>
        </mxCell>
        <mxCell id="mad-1AcM6uH0QCK6t4t2-5" value="" style="resizable=0;html=1;whiteSpace=wrap;align=right;verticalAlign=bottom;" connectable="0" vertex="1" parent="mad-1AcM6uH0QCK6t4t2-4">
          <mxGeometry x="1" relative="1" as="geometry" />
        </mxCell>
        <mxCell id="mad-1AcM6uH0QCK6t4t2-6" value="Cantidad" style="ellipse;whiteSpace=wrap;html=1;align=center;" vertex="1" parent="1">
          <mxGeometry x="1029.81" y="210" width="100" height="40" as="geometry" />
        </mxCell>
        <mxCell id="mad-1AcM6uH0QCK6t4t2-7" value="" style="endArrow=none;html=1;rounded=0;exitX=1;exitY=1;exitDx=0;exitDy=0;entryX=0;entryY=0.5;entryDx=0;entryDy=0;" edge="1" parent="1" source="mad-1AcM6uH0QCK6t4t2-1" target="mad-1AcM6uH0QCK6t4t2-6">
          <mxGeometry relative="1" as="geometry">
            <mxPoint x="1099.81" y="97.5" as="sourcePoint" />
            <mxPoint x="1136.81" y="52.5" as="targetPoint" />
          </mxGeometry>
        </mxCell>
        <mxCell id="mad-1AcM6uH0QCK6t4t2-8" value="" style="resizable=0;html=1;whiteSpace=wrap;align=right;verticalAlign=bottom;" connectable="0" vertex="1" parent="mad-1AcM6uH0QCK6t4t2-7">
          <mxGeometry x="1" relative="1" as="geometry" />
        </mxCell>
        <mxCell id="mad-1AcM6uH0QCK6t4t2-9" value="Pedido" style="whiteSpace=wrap;html=1;align=center;" vertex="1" parent="1">
          <mxGeometry x="900" y="370" width="100" height="40" as="geometry" />
        </mxCell>
        <mxCell id="mad-1AcM6uH0QCK6t4t2-11" value="" style="endArrow=none;html=1;rounded=0;exitX=1;exitY=0;exitDx=0;exitDy=0;entryX=0;entryY=0.5;entryDx=0;entryDy=0;" edge="1" parent="1" source="mad-1AcM6uH0QCK6t4t2-9" target="mad-1AcM6uH0QCK6t4t2-17">
          <mxGeometry relative="1" as="geometry">
            <mxPoint x="964.5" y="125" as="sourcePoint" />
            <mxPoint x="1059.3899999999921" y="295" as="targetPoint" />
          </mxGeometry>
        </mxCell>
        <mxCell id="mad-1AcM6uH0QCK6t4t2-12" value="" style="resizable=0;html=1;whiteSpace=wrap;align=right;verticalAlign=bottom;" connectable="0" vertex="1" parent="mad-1AcM6uH0QCK6t4t2-11">
          <mxGeometry x="1" relative="1" as="geometry">
            <mxPoint x="190" y="-169" as="offset" />
          </mxGeometry>
        </mxCell>
        <mxCell id="mad-1AcM6uH0QCK6t4t2-13" value="Cantidad" style="ellipse;whiteSpace=wrap;html=1;align=center;" vertex="1" parent="1">
          <mxGeometry x="1019.9999999999998" y="430" width="100" height="40" as="geometry" />
        </mxCell>
        <mxCell id="mad-1AcM6uH0QCK6t4t2-14" value="" style="endArrow=none;html=1;rounded=0;exitX=1;exitY=1;exitDx=0;exitDy=0;entryX=0;entryY=0.5;entryDx=0;entryDy=0;" edge="1" parent="1" source="mad-1AcM6uH0QCK6t4t2-9" target="mad-1AcM6uH0QCK6t4t2-13">
          <mxGeometry relative="1" as="geometry">
            <mxPoint x="1047.5" y="325" as="sourcePoint" />
            <mxPoint x="1084.5" y="280" as="targetPoint" />
          </mxGeometry>
        </mxCell>
        <mxCell id="mad-1AcM6uH0QCK6t4t2-15" value="" style="resizable=0;html=1;whiteSpace=wrap;align=right;verticalAlign=bottom;" connectable="0" vertex="1" parent="mad-1AcM6uH0QCK6t4t2-14">
          <mxGeometry x="1" relative="1" as="geometry" />
        </mxCell>
        <mxCell id="mad-1AcM6uH0QCK6t4t2-17" value="&lt;u&gt;Número_Pedido&lt;/u&gt;" style="ellipse;whiteSpace=wrap;html=1;align=center;" vertex="1" parent="1">
          <mxGeometry x="1019.9999999999998" y="320" width="100" height="40" as="geometry" />
        </mxCell>
        <mxCell id="mad-1AcM6uH0QCK6t4t2-18" value="Fecha" style="ellipse;whiteSpace=wrap;html=1;align=center;" vertex="1" parent="1">
          <mxGeometry x="1029.8099999999997" y="370" width="100" height="40" as="geometry" />
        </mxCell>
        <mxCell id="mad-1AcM6uH0QCK6t4t2-19" value="" style="endArrow=none;html=1;rounded=0;exitX=1;exitY=0.5;exitDx=0;exitDy=0;entryX=0;entryY=0.5;entryDx=0;entryDy=0;" edge="1" parent="1" source="mad-1AcM6uH0QCK6t4t2-9" target="mad-1AcM6uH0QCK6t4t2-18">
          <mxGeometry relative="1" as="geometry">
            <mxPoint x="1047.31" y="325" as="sourcePoint" />
            <mxPoint x="1074.31" y="290" as="targetPoint" />
          </mxGeometry>
        </mxCell>
        <mxCell id="mad-1AcM6uH0QCK6t4t2-20" value="" style="resizable=0;html=1;whiteSpace=wrap;align=right;verticalAlign=bottom;" connectable="0" vertex="1" parent="mad-1AcM6uH0QCK6t4t2-19">
          <mxGeometry x="1" relative="1" as="geometry" />
        </mxCell>
        <mxCell id="mad-1AcM6uH0QCK6t4t2-21" value="Realiza" style="shape=rhombus;perimeter=rhombusPerimeter;whiteSpace=wrap;html=1;align=center;" vertex="1" parent="1">
          <mxGeometry x="890" y="450" width="120" height="60" as="geometry" />
        </mxCell>
        <mxCell id="mad-1AcM6uH0QCK6t4t2-22" value="" style="endArrow=none;html=1;rounded=0;exitX=0.5;exitY=0;exitDx=0;exitDy=0;entryX=0.5;entryY=1;entryDx=0;entryDy=0;" edge="1" parent="1" source="mad-1AcM6uH0QCK6t4t2-21" target="mad-1AcM6uH0QCK6t4t2-9">
          <mxGeometry relative="1" as="geometry">
            <mxPoint x="879.81" y="460" as="sourcePoint" />
            <mxPoint x="1002.81" y="310" as="targetPoint" />
          </mxGeometry>
        </mxCell>
        <mxCell id="mad-1AcM6uH0QCK6t4t2-23" value="" style="resizable=0;html=1;whiteSpace=wrap;align=right;verticalAlign=bottom;" connectable="0" vertex="1" parent="mad-1AcM6uH0QCK6t4t2-22">
          <mxGeometry x="1" relative="1" as="geometry">
            <mxPoint x="280" y="-254" as="offset" />
          </mxGeometry>
        </mxCell>
        <mxCell id="mad-1AcM6uH0QCK6t4t2-24" value="" style="endArrow=none;html=1;rounded=0;exitX=0.5;exitY=0;exitDx=0;exitDy=0;entryX=0.5;entryY=1;entryDx=0;entryDy=0;" edge="1" parent="1" source="NHeWaSwUiM2406PgDpy3-20" target="mad-1AcM6uH0QCK6t4t2-21">
          <mxGeometry relative="1" as="geometry">
            <mxPoint x="893" y="365" as="sourcePoint" />
            <mxPoint x="923" y="310" as="targetPoint" />
          </mxGeometry>
        </mxCell>
        <mxCell id="mad-1AcM6uH0QCK6t4t2-25" value="" style="resizable=0;html=1;whiteSpace=wrap;align=right;verticalAlign=bottom;" connectable="0" vertex="1" parent="mad-1AcM6uH0QCK6t4t2-24">
          <mxGeometry x="1" relative="1" as="geometry">
            <mxPoint x="120" y="-122" as="offset" />
          </mxGeometry>
        </mxCell>
        <mxCell id="mad-1AcM6uH0QCK6t4t2-26" value="compra" style="text;html=1;align=center;verticalAlign=middle;resizable=0;points=[];autosize=1;strokeColor=none;fillColor=none;rotation=0;" vertex="1" parent="1">
          <mxGeometry x="890" y="420" width="60" height="30" as="geometry" />
        </mxCell>
        <mxCell id="mad-1AcM6uH0QCK6t4t2-27" value="0:N" style="text;html=1;align=center;verticalAlign=middle;resizable=0;points=[];autosize=1;strokeColor=none;fillColor=none;rotation=0;" vertex="1" parent="1">
          <mxGeometry x="950" y="420" width="40" height="30" as="geometry" />
        </mxCell>
        <mxCell id="mad-1AcM6uH0QCK6t4t2-28" value="comprado" style="text;html=1;align=center;verticalAlign=middle;resizable=0;points=[];autosize=1;strokeColor=none;fillColor=none;rotation=0;" vertex="1" parent="1">
          <mxGeometry x="880" y="510" width="80" height="30" as="geometry" />
        </mxCell>
        <mxCell id="mad-1AcM6uH0QCK6t4t2-29" value="1:1" style="text;html=1;align=center;verticalAlign=middle;resizable=0;points=[];autosize=1;strokeColor=none;fillColor=none;rotation=0;" vertex="1" parent="1">
          <mxGeometry x="944.62" y="510" width="40" height="30" as="geometry" />
        </mxCell>
        <mxCell id="mad-1AcM6uH0QCK6t4t2-30" value="Contiene" style="shape=rhombus;perimeter=rhombusPerimeter;whiteSpace=wrap;html=1;align=center;" vertex="1" parent="1">
          <mxGeometry x="889.81" y="260" width="120" height="60" as="geometry" />
        </mxCell>
        <mxCell id="mad-1AcM6uH0QCK6t4t2-31" value="" style="endArrow=none;html=1;rounded=0;exitX=0.5;exitY=0;exitDx=0;exitDy=0;entryX=0.5;entryY=1;entryDx=0;entryDy=0;" edge="1" parent="1" source="mad-1AcM6uH0QCK6t4t2-9" target="mad-1AcM6uH0QCK6t4t2-30">
          <mxGeometry relative="1" as="geometry">
            <mxPoint x="900" y="370" as="sourcePoint" />
            <mxPoint x="913" y="340" as="targetPoint" />
          </mxGeometry>
        </mxCell>
        <mxCell id="mad-1AcM6uH0QCK6t4t2-32" value="" style="resizable=0;html=1;whiteSpace=wrap;align=right;verticalAlign=bottom;" connectable="0" vertex="1" parent="mad-1AcM6uH0QCK6t4t2-31">
          <mxGeometry x="1" relative="1" as="geometry">
            <mxPoint x="190" y="-169" as="offset" />
          </mxGeometry>
        </mxCell>
        <mxCell id="mad-1AcM6uH0QCK6t4t2-33" value="" style="endArrow=none;html=1;rounded=0;exitX=0.5;exitY=1;exitDx=0;exitDy=0;entryX=0.5;entryY=0;entryDx=0;entryDy=0;" edge="1" parent="1" source="mad-1AcM6uH0QCK6t4t2-1" target="mad-1AcM6uH0QCK6t4t2-30">
          <mxGeometry relative="1" as="geometry">
            <mxPoint x="979.81" y="352.5" as="sourcePoint" />
            <mxPoint x="949.81" y="202.5" as="targetPoint" />
          </mxGeometry>
        </mxCell>
        <mxCell id="mad-1AcM6uH0QCK6t4t2-34" value="" style="resizable=0;html=1;whiteSpace=wrap;align=right;verticalAlign=bottom;" connectable="0" vertex="1" parent="mad-1AcM6uH0QCK6t4t2-33">
          <mxGeometry x="1" relative="1" as="geometry">
            <mxPoint x="120" y="-142" as="offset" />
          </mxGeometry>
        </mxCell>
        <mxCell id="mad-1AcM6uH0QCK6t4t2-35" value="tiene" style="text;html=1;align=center;verticalAlign=middle;resizable=0;points=[];autosize=1;strokeColor=none;fillColor=none;rotation=0;" vertex="1" parent="1">
          <mxGeometry x="904.9999999999999" y="220" width="50" height="30" as="geometry" />
        </mxCell>
        <mxCell id="mad-1AcM6uH0QCK6t4t2-36" value="1:N" style="text;html=1;align=center;verticalAlign=middle;resizable=0;points=[];autosize=1;strokeColor=none;fillColor=none;rotation=0;" vertex="1" parent="1">
          <mxGeometry x="944.6199999999999" y="220" width="40" height="30" as="geometry" />
        </mxCell>
        <mxCell id="mad-1AcM6uH0QCK6t4t2-37" value="están en" style="text;html=1;align=center;verticalAlign=middle;resizable=0;points=[];autosize=1;strokeColor=none;fillColor=none;rotation=0;" vertex="1" parent="1">
          <mxGeometry x="880" y="325" width="70" height="30" as="geometry" />
        </mxCell>
        <mxCell id="mad-1AcM6uH0QCK6t4t2-38" value="0:N" style="text;html=1;align=center;verticalAlign=middle;resizable=0;points=[];autosize=1;strokeColor=none;fillColor=none;rotation=0;" vertex="1" parent="1">
          <mxGeometry x="944.6199999999999" y="325" width="40" height="30" as="geometry" />
        </mxCell>
        <mxCell id="mad-1AcM6uH0QCK6t4t2-40" value="Producen" style="shape=rhombus;perimeter=rhombusPerimeter;whiteSpace=wrap;html=1;align=center;" vertex="1" parent="1">
          <mxGeometry x="720" y="160" width="120" height="60" as="geometry" />
        </mxCell>
        <mxCell id="mad-1AcM6uH0QCK6t4t2-41" value="" style="endArrow=none;html=1;rounded=0;exitX=1;exitY=0.5;exitDx=0;exitDy=0;entryX=0;entryY=0.5;entryDx=0;entryDy=0;" edge="1" parent="1" source="S-kR7vA9aXVw8Hu3PSYM-3" target="NHeWaSwUiM2406PgDpy3-40">
          <mxGeometry relative="1" as="geometry">
            <mxPoint x="440" y="190" as="sourcePoint" />
            <mxPoint x="590" y="190" as="targetPoint" />
          </mxGeometry>
        </mxCell>
        <mxCell id="NHeWaSwUiM2406PgDpy3-40" value="Zona" style="shape=ext;margin=3;double=1;whiteSpace=wrap;html=1;align=center;" vertex="1" parent="1">
          <mxGeometry x="525" y="170" width="100" height="40" as="geometry" />
        </mxCell>
        <mxCell id="mad-1AcM6uH0QCK6t4t2-43" value="" style="endArrow=none;html=1;rounded=0;exitX=1;exitY=0.5;exitDx=0;exitDy=0;entryX=0;entryY=0.5;entryDx=0;entryDy=0;" edge="1" parent="1" source="mad-1AcM6uH0QCK6t4t2-40" target="mad-1AcM6uH0QCK6t4t2-1">
          <mxGeometry relative="1" as="geometry">
            <mxPoint x="990" y="380" as="sourcePoint" />
            <mxPoint x="1002" y="350" as="targetPoint" />
          </mxGeometry>
        </mxCell>
        <mxCell id="mad-1AcM6uH0QCK6t4t2-44" value="" style="resizable=0;html=1;whiteSpace=wrap;align=right;verticalAlign=bottom;" connectable="0" vertex="1" parent="mad-1AcM6uH0QCK6t4t2-43">
          <mxGeometry x="1" relative="1" as="geometry">
            <mxPoint x="120" y="-142" as="offset" />
          </mxGeometry>
        </mxCell>
        <mxCell id="mad-1AcM6uH0QCK6t4t2-45" value="" style="endArrow=none;html=1;rounded=0;exitX=1;exitY=0.5;exitDx=0;exitDy=0;entryX=0;entryY=0.5;entryDx=0;entryDy=0;" edge="1" parent="1" source="NHeWaSwUiM2406PgDpy3-40" target="mad-1AcM6uH0QCK6t4t2-40">
          <mxGeometry relative="1" as="geometry">
            <mxPoint x="1000" y="390" as="sourcePoint" />
            <mxPoint x="1012" y="360" as="targetPoint" />
          </mxGeometry>
        </mxCell>
        <mxCell id="mad-1AcM6uH0QCK6t4t2-46" value="" style="resizable=0;html=1;whiteSpace=wrap;align=right;verticalAlign=bottom;" connectable="0" vertex="1" parent="mad-1AcM6uH0QCK6t4t2-45">
          <mxGeometry x="1" relative="1" as="geometry">
            <mxPoint x="120" y="-142" as="offset" />
          </mxGeometry>
        </mxCell>
        <mxCell id="mad-1AcM6uH0QCK6t4t2-48" value="1:N" style="text;html=1;align=center;verticalAlign=middle;resizable=0;points=[];autosize=1;strokeColor=none;fillColor=none;rotation=0;" vertex="1" parent="1">
          <mxGeometry x="870" y="167.5" width="40" height="30" as="geometry" />
        </mxCell>
        <mxCell id="mad-1AcM6uH0QCK6t4t2-49" value="es creado" style="text;html=1;align=center;verticalAlign=middle;resizable=0;points=[];autosize=1;strokeColor=none;fillColor=none;rotation=0;" vertex="1" parent="1">
          <mxGeometry x="640" y="167.5" width="80" height="30" as="geometry" />
        </mxCell>
        <mxCell id="mad-1AcM6uH0QCK6t4t2-50" value="1:N" style="text;html=1;align=center;verticalAlign=middle;resizable=0;points=[];autosize=1;strokeColor=none;fillColor=none;" vertex="1" parent="1">
          <mxGeometry x="617.5" y="167.5" width="40" height="30" as="geometry" />
        </mxCell>
        <mxCell id="mad-1AcM6uH0QCK6t4t2-53" value="crea" style="text;html=1;align=center;verticalAlign=middle;resizable=0;points=[];autosize=1;strokeColor=none;fillColor=none;rotation=0;" vertex="1" parent="1">
          <mxGeometry x="835.0000000000001" y="167.5" width="50" height="30" as="geometry" />
        </mxCell>
        <mxCell id="kz7vGIJZ4fMj3Kq4SWfX-1" value="ID" style="text;html=1;align=center;verticalAlign=middle;resizable=0;points=[];autosize=1;strokeColor=none;fillColor=none;" vertex="1" parent="1">
          <mxGeometry x="360" y="160" width="40" height="30" as="geometry" />
        </mxCell>
        <mxCell id="6ZQEdS839FW5X1glsJGI-1" value="Época del año" style="ellipse;whiteSpace=wrap;html=1;align=center;" vertex="1" parent="1">
          <mxGeometry x="370" y="360" width="100" height="40" as="geometry" />
        </mxCell>
        <mxCell id="6ZQEdS839FW5X1glsJGI-2" value="" style="endArrow=none;html=1;rounded=0;exitX=1;exitY=0.5;exitDx=0;exitDy=0;entryX=0;entryY=0.5;entryDx=0;entryDy=0;" edge="1" parent="1" source="6ZQEdS839FW5X1glsJGI-1" target="NHeWaSwUiM2406PgDpy3-53">
          <mxGeometry relative="1" as="geometry">
            <mxPoint x="585" y="360" as="sourcePoint" />
            <mxPoint x="585" y="220" as="targetPoint" />
          </mxGeometry>
        </mxCell>
        <mxCell id="6ZQEdS839FW5X1glsJGI-3" value="" style="resizable=0;html=1;whiteSpace=wrap;align=right;verticalAlign=bottom;" connectable="0" vertex="1" parent="6ZQEdS839FW5X1glsJGI-2">
          <mxGeometry x="1" relative="1" as="geometry" />
        </mxCell>
      </root>
    </mxGraphModel>
  </diagram>
</mxfile>
